<?xml version="1.0" standalone="no"?><!DOCTYPE svg PUBLIC "-//W3C//DTD SVG 1.1//EN" "http://www.w3.org/Graphics/SVG/1.1/DTD/svg11.dtd"><svg t="1620051282805" class="icon" viewBox="0 0 1024 1024" version="1.1" xmlns="http://www.w3.org/2000/svg" p-id="1554" xmlns:xlink="http://www.w3.org/1999/xlink" width="200" height="200"><defs><style type="text/css"></style></defs><path d="M867.2 277.333333H597.333333v512h320a64 64 0 0 0 64-64V498.986667a45.226667 45.226667 0 0 0-2.986666-16l-71.68-178.773334A42.666667 42.666667 0 0 0 867.2 277.333333z" fill="#FFC107" p-id="1555"></path><path d="M919.04 553.386667H682.666667a21.333333 21.333333 0 0 1-21.333334-21.333334V341.333333a21.333333 21.333333 0 0 1 21.333334-21.333333h174.506666a21.333333 21.333333 0 0 1 19.84 13.44L938.666667 490.666667a20.053333 20.053333 0 0 1 1.493333 7.893333v33.706667a21.333333 21.333333 0 0 1-21.12 21.12z" fill="#37474F" p-id="1556"></path><path d="M42.666667 128h554.666666v533.333333H42.666667z" fill="#9575CD" p-id="1557"></path><path d="M42.666667 661.333333h554.666666v128H42.666667z" fill="#7E57C2" p-id="1558"></path><path d="M256 789.333333m-106.666667 0a106.666667 106.666667 0 1 0 213.333334 0 106.666667 106.666667 0 1 0-213.333334 0Z" fill="#37474F" p-id="1559"></path><path d="M256 789.333333m-42.666667 0a42.666667 42.666667 0 1 0 85.333334 0 42.666667 42.666667 0 1 0-85.333334 0Z" fill="#607D8B" p-id="1560"></path><path d="M789.333333 789.333333m-106.666666 0a106.666667 106.666667 0 1 0 213.333333 0 106.666667 106.666667 0 1 0-213.333333 0Z" fill="#37474F" p-id="1561"></path><path d="M789.333333 789.333333m-42.666666 0a42.666667 42.666667 0 1 0 85.333333 0 42.666667 42.666667 0 1 0-85.333333 0Z" fill="#607D8B" p-id="1562"></path><path d="M938.666667 682.666667h42.666666v42.666666h-42.666666z" fill="#FF5722" p-id="1563"></path><path d="M938.666667 640h42.666666v42.666667h-42.666666z" fill="#FFF59D" p-id="1564"></path></svg>